<svg xmlns="http://www.w3.org/2000/svg" viewBox="0 0 273.83 103.33"><defs><style>.cls-1{fill:#020202;}</style></defs><g id="Capa_2" data-name="Capa 2"><g id="Capa_1-2" data-name="Capa 1"><path d="M50.18,103.33a47.9,47.9,0,0,1-19.54-4,49.81,49.81,0,0,1-16-11.16A52.13,52.13,0,0,1,0,51.6,52.34,52.34,0,0,1,3.81,31.67a50.76,50.76,0,0,1,10.7-16.45,51.37,51.37,0,0,1,16-11.16A47.64,47.64,0,0,1,50.18,0a50.05,50.05,0,0,1,16.9,2.71,48.2,48.2,0,0,1,14.71,8.64,3.36,3.36,0,0,1,1.35,2.13,3.92,3.92,0,0,1-.32,2.32,3.39,3.39,0,0,1-1.55,1.62A2.29,2.29,0,0,1,80,19a4.24,4.24,0,0,1-2.39.39A4.92,4.92,0,0,1,75,18.19a34.3,34.3,0,0,0-11-6.52,41,41,0,0,0-13.8-2.12A37.11,37.11,0,0,0,34.51,12.9a41.82,41.82,0,0,0-12.84,9.16A43.26,43.26,0,0,0,13,35.47,41.79,41.79,0,0,0,9.8,51.6,42.38,42.38,0,0,0,13,68,43.19,43.19,0,0,0,21.67,81.4a40.79,40.79,0,0,0,12.84,9.09,37.53,37.53,0,0,0,15.67,3.29A38.6,38.6,0,0,0,63.6,91.46a44.75,44.75,0,0,0,12-6.71,4.07,4.07,0,0,1,3.29-1,5.34,5.34,0,0,1,3,1.55,4.58,4.58,0,0,1,1.29,3.35,5,5,0,0,1-.33,1.87,6.22,6.22,0,0,1-1.09,1.75,38.12,38.12,0,0,1-14.71,8.57A56.74,56.74,0,0,1,50.18,103.33Z"/><path class="cls-1" d="M54.11,92.92c-9.93-21.08-36-21.55-36.24-21.55h-.32L12,58.72l1.53,1.15c.06,0,7,4.92,31.66,2.23,25.29-2.76,47.3,14.79,49.46,18l-.83.56C91.69,77.52,70.13,60.38,45.28,63.1c-19.47,2.12-28-.37-31-1.71l3.95,9C21.3,70.5,45.43,72.14,55,92.5Z"/><path d="M34.43,71.53c-2.13,0-5.81-1.51-7.14-2.09a.37.37,0,1,1,.3-.68c3.28,1.42,7.15,2.53,7.65,1.84.06-.09.28-.61-1.45-2.6-.18-.13-1.32-1.07-.92-1.94s1.88-1.6,11,.22a.38.38,0,0,1,.29.44.37.37,0,0,1-.44.3c-9.11-1.82-10.06-.86-10.15-.65s.36.79.74,1.09c1.57,1.78,2,2.91,1.55,3.58A1.7,1.7,0,0,1,34.43,71.53Z"/><path d="M48.78,72.47a21.39,21.39,0,0,1-6.1-1.23.36.36,0,0,1-.23-.47.36.36,0,0,1,.47-.23c1.84.64,6.87,2,8.09.53.64-.77,0-2.28-.64-3.41s-.81-2.21-.27-2.8c2.36-2.56,17.23,4.25,18.92,5a.37.37,0,0,1,.18.5.38.38,0,0,1-.5.18c-6.18-2.88-16.55-6.84-18.05-5.22-.37.41,0,1.27.37,1.93,1.13,2,1.31,3.36.57,4.26A3.6,3.6,0,0,1,48.78,72.47Z"/><path d="M63.31,84.55c-3.1,0-7.64-1.9-8.31-2.18a.38.38,0,0,1-.19-.5.36.36,0,0,1,.49-.19c3.2,1.37,8.73,3,9.91,1.55.47-.58.51-2-2-5.55-1.84-2.6-2.35-4.19-1.61-5,2-2.19,13.56,4.49,15.85,5.85a.38.38,0,0,1,.13.51.38.38,0,0,1-.52.13c-5.48-3.25-13.72-7.27-14.91-6-.2.22-.45,1,1.67,4,2.26,3.19,2.9,5.31,2,6.46A3.1,3.1,0,0,1,63.31,84.55Z"/><path d="M49.14,90.79c-22.39,0-30.48-17.81-30.57-18l.92-.41c.08.19,8.21,18,30.81,17.38l0,1C49.93,90.79,49.53,90.79,49.14,90.79Z"/><path d="M85.43,67.88a1.35,1.35,0,0,1-1.29-.74,1.57,1.57,0,0,1-.08-1.44L95.53,38.47a1.5,1.5,0,0,1,1.48-1,1.48,1.48,0,0,1,1.44,1L110,65.74a1.51,1.51,0,0,1-1.37,2.14,1.6,1.6,0,0,1-.84-.23,1.74,1.74,0,0,1-.6-.7l-10.73-26h1.21L86.83,67a1.48,1.48,0,0,1-.57.7A1.54,1.54,0,0,1,85.43,67.88ZM88,60.63,89.17,58H105l1.17,2.62Z"/><path d="M123.88,68.27a14.34,14.34,0,0,1-4.62-.72,11,11,0,0,1-3.69-2,9,9,0,0,1-2.38-3.08,1.2,1.2,0,0,1,0-1.15,1.56,1.56,0,0,1,1-.72,1.39,1.39,0,0,1,1.07.12,1.79,1.79,0,0,1,.8.81,6.08,6.08,0,0,0,1.72,2,8.25,8.25,0,0,0,2.69,1.39,11.61,11.61,0,0,0,3.43.48,9.21,9.21,0,0,0,3.67-.68,5.73,5.73,0,0,0,2.51-2,5.39,5.39,0,0,0,.92-3.17,5.53,5.53,0,0,0-1.76-4.1,9.36,9.36,0,0,0-5.5-2.18,12.79,12.79,0,0,1-7.13-2.83,7.19,7.19,0,0,1-2.58-5.6,6.91,6.91,0,0,1,1.27-4.13A8.09,8.09,0,0,1,118.77,38a12.8,12.8,0,0,1,5.11-1,10.51,10.51,0,0,1,7,2.48A10.35,10.35,0,0,1,133,42a1.55,1.55,0,0,1,.25,1.21,1.38,1.38,0,0,1-.68.89,1.59,1.59,0,0,1-1.19.08,1.61,1.61,0,0,1-.92-.74,9.16,9.16,0,0,0-1.46-1.7,6.7,6.7,0,0,0-2.13-1.27,9,9,0,0,0-3-.5,8.5,8.5,0,0,0-5,1.3A4.36,4.36,0,0,0,117,45a4.44,4.44,0,0,0,.7,2.43A5.56,5.56,0,0,0,120,49.38a14.52,14.52,0,0,0,4.35,1.18q4.87.7,7.23,3a7.91,7.91,0,0,1,2.36,6,8.74,8.74,0,0,1-.76,3.74A7.62,7.62,0,0,1,131.08,66a10,10,0,0,1-3.24,1.7A13.12,13.12,0,0,1,123.88,68.27Z"/><path d="M154,68.27a14.43,14.43,0,0,1-5.91-1.21,15.07,15.07,0,0,1-4.84-3.37A16.14,16.14,0,0,1,140,46.61a15.22,15.22,0,0,1,3.23-5,15.56,15.56,0,0,1,4.84-3.37A14.37,14.37,0,0,1,154,37a15.09,15.09,0,0,1,5.11.82,14.77,14.77,0,0,1,4.44,2.61,1,1,0,0,1,.41.65,1.13,1.13,0,0,1-.1.7,1,1,0,0,1-.46.49.74.74,0,0,1-.39.46,1.25,1.25,0,0,1-.73.12,1.46,1.46,0,0,1-.8-.35,10.31,10.31,0,0,0-3.31-2,12.35,12.35,0,0,0-4.17-.64,11.3,11.3,0,0,0-4.74,1,12.69,12.69,0,0,0-3.88,2.77,12.85,12.85,0,0,0-2.63,4.06,12.52,12.52,0,0,0-1,4.87,12.7,12.7,0,0,0,1,4.95,12.85,12.85,0,0,0,2.63,4.06,12.31,12.31,0,0,0,3.88,2.75,11.44,11.44,0,0,0,4.74,1,11.57,11.57,0,0,0,4.05-.7,13.57,13.57,0,0,0,3.63-2,1.23,1.23,0,0,1,1-.32,1.67,1.67,0,0,1,.92.47,1.38,1.38,0,0,1,.39,1,1.47,1.47,0,0,1-.1.56,1.64,1.64,0,0,1-.33.53,11.59,11.59,0,0,1-4.44,2.59A17.14,17.14,0,0,1,154,68.27Z"/><path d="M168.61,67.88a1.35,1.35,0,0,1-1.29-.74,1.57,1.57,0,0,1-.07-1.44l11.46-27.23a1.51,1.51,0,0,1,1.48-1,1.49,1.49,0,0,1,1.45,1l11.5,27.27a1.51,1.51,0,0,1-1.36,2.14,1.6,1.6,0,0,1-.84-.23,1.76,1.76,0,0,1-.61-.7l-10.72-26h1.21L170,67a1.48,1.48,0,0,1-.57.7A1.6,1.6,0,0,1,168.61,67.88Zm2.58-7.25L172.36,58h15.83l1.17,2.62Z"/><path d="M199.23,67.88a1.46,1.46,0,0,1-1.52-1.52V38.94a1.46,1.46,0,0,1,1.52-1.52h7a16.48,16.48,0,0,1,6.14,1.11,14.12,14.12,0,0,1,4.82,3.16,14.39,14.39,0,0,1,3.13,4.82,17.34,17.34,0,0,1,0,12.26,14.27,14.27,0,0,1-3.13,4.84,14,14,0,0,1-4.82,3.16,16.48,16.48,0,0,1-6.14,1.11Zm1.52-2.73h5.5a12.22,12.22,0,0,0,6.33-1.62,11.49,11.49,0,0,0,4.31-4.44,14.13,14.13,0,0,0,0-12.91,11.33,11.33,0,0,0-4.31-4.43,12.4,12.4,0,0,0-6.33-1.6h-5.5Z"/><path d="M225.28,67.88a1.35,1.35,0,0,1-1.29-.74,1.6,1.6,0,0,1-.08-1.44l11.47-27.23a1.51,1.51,0,0,1,1.48-1,1.47,1.47,0,0,1,1.44,1l11.51,27.27a1.51,1.51,0,0,1-1.37,2.14,1.54,1.54,0,0,1-.83-.23A1.76,1.76,0,0,1,247,67l-10.72-26h1.21L226.68,67a1.52,1.52,0,0,1-.56.7A1.6,1.6,0,0,1,225.28,67.88Zm2.57-7.25L229,58h15.84L246,60.63Z"/><path d="M263.73,68.27a14.34,14.34,0,0,1-4.62-.72,10.89,10.89,0,0,1-3.68-2,8.92,8.92,0,0,1-2.38-3.08,1.15,1.15,0,0,1,0-1.15,1.52,1.52,0,0,1,1-.72,1.38,1.38,0,0,1,1.07.12,1.74,1.74,0,0,1,.8.81,6.2,6.2,0,0,0,1.72,2,8.25,8.25,0,0,0,2.69,1.39,11.61,11.61,0,0,0,3.43.48,9.21,9.21,0,0,0,3.67-.68,5.73,5.73,0,0,0,2.51-2,5.39,5.39,0,0,0,.92-3.17,5.52,5.52,0,0,0-1.75-4.1,9.39,9.39,0,0,0-5.5-2.18,12.83,12.83,0,0,1-7.14-2.83,7.18,7.18,0,0,1-2.57-5.6,6.9,6.9,0,0,1,1.26-4.13A8.15,8.15,0,0,1,258.62,38a12.83,12.83,0,0,1,5.11-1,10.51,10.51,0,0,1,7,2.48A10.13,10.13,0,0,1,272.82,42a1.55,1.55,0,0,1,.25,1.21,1.38,1.38,0,0,1-.68.89,1.59,1.59,0,0,1-1.19.08,1.61,1.61,0,0,1-.92-.74,8.8,8.8,0,0,0-1.46-1.7,6.65,6.65,0,0,0-2.12-1.27,9.15,9.15,0,0,0-3-.5,8.5,8.5,0,0,0-4.95,1.3A4.36,4.36,0,0,0,256.87,45a4.44,4.44,0,0,0,.7,2.43,5.56,5.56,0,0,0,2.32,1.92,14.52,14.52,0,0,0,4.35,1.18q4.88.7,7.23,3a7.87,7.87,0,0,1,2.36,6,8.74,8.74,0,0,1-.76,3.74A7.51,7.51,0,0,1,270.93,66a9.91,9.91,0,0,1-3.24,1.7A13,13,0,0,1,263.73,68.27Z"/></g></g></svg>